<svg width="157" height="40" viewBox="0 0 157 40" fill="none" xmlns="http://www.w3.org/2000/svg">
<path d="M5.58386 12.5917C5.61583 12.2764 5.87572 11.9474 6.22842 11.7759L21.6014 2.85875C22.158 2.58803 22.6792 2.82177 22.6287 3.31946V13.1962C22.5968 13.5116 22.3369 13.8406 21.9842 14.0121L6.6112 22.7489C6.05462 23.0196 5.53342 22.7858 5.58386 22.2881V12.5917Z" fill="#F3F3F0"/>
<path d="M33.1979 14.8742C33.455 15.0596 33.61 15.4492 33.5822 15.8404V33.3695C33.5383 33.9869 33.0753 34.3214 32.6695 34.0289L24.1746 29.1734C23.9175 28.988 23.7625 28.5984 23.7903 28.2072V10.426C23.8342 9.8086 24.2972 9.47409 24.703 9.76663L33.1979 14.8742Z" fill="#F3F3F0"/>
<path d="M17.8804 37.5657C17.5913 37.6957 17.1764 37.6351 16.8515 37.4154L1.27808 28.466C0.765346 28.1194 0.707167 27.5511 1.1634 27.346L9.54208 22.4581C9.83118 22.3281 10.246 22.3887 10.5709 22.6084L26.0313 31.6837C26.544 32.0304 26.6111 32.5574 26.146 32.8038L17.8804 37.5657Z" fill="#F3F3F0"/>
<path d="M152.472 33.0002V7.36405H156.354V33.0002H152.472Z" fill="#F3F3F0"/>
<path d="M140.366 33.4397C138.584 33.4397 137.009 33.0368 135.642 32.2311C134.275 31.4254 133.2 30.3023 132.419 28.8618C131.662 27.4213 131.284 25.7732 131.284 23.9177C131.284 21.9889 131.662 20.3165 132.419 18.9004C133.176 17.4843 134.238 16.3856 135.605 15.6043C136.997 14.7986 138.596 14.3957 140.403 14.3957C142.161 14.3957 143.699 14.7864 145.017 15.5677C146.336 16.3245 147.361 17.3622 148.094 18.6806C148.851 19.9991 149.229 21.5006 149.229 23.1852C149.229 23.527 149.217 23.82 149.192 24.0642C149.192 24.3083 149.168 24.6013 149.119 24.9431H135.166C135.239 25.9686 135.495 26.8841 135.935 27.6898C136.374 28.4711 136.973 29.0937 137.729 29.5576C138.486 29.9971 139.353 30.2168 140.33 30.2168C141.379 30.2168 142.271 29.9849 143.003 29.521C143.76 29.0327 144.322 28.3491 144.688 27.4701H148.716C148.399 28.5688 147.862 29.5698 147.105 30.4732C146.372 31.3766 145.445 32.0968 144.322 32.634C143.198 33.1711 141.88 33.4397 140.366 33.4397ZM135.202 22.1964H145.274C145.225 20.7803 144.724 19.6694 143.772 18.8637C142.82 18.0336 141.66 17.6186 140.293 17.6186C139.072 17.6186 137.961 17.997 136.96 18.7539C135.959 19.5107 135.373 20.6582 135.202 22.1964Z" fill="#F3F3F0"/>
<path d="M117.54 33.4397C115.733 33.4397 114.17 33.0124 112.852 32.1579C111.558 31.2789 110.557 30.1192 109.849 28.6787C109.165 27.2382 108.824 25.6268 108.824 23.8444C108.824 22.0865 109.165 20.4996 109.849 19.0835C110.557 17.643 111.558 16.5077 112.852 15.6775C114.17 14.823 115.733 14.3957 117.54 14.3957C118.883 14.3957 120.103 14.6765 121.202 15.2381C122.301 15.7752 123.192 16.5443 123.876 17.5453V7.36405H127.794V33.0002H124.022L123.876 30.1802C123.29 31.1324 122.447 31.9137 121.349 32.5241C120.25 33.1345 118.98 33.4397 117.54 33.4397ZM118.309 30.0337C119.456 30.0337 120.445 29.7652 121.275 29.228C122.105 28.6909 122.74 27.9584 123.18 27.0306C123.619 26.1028 123.839 25.0652 123.839 23.9177C123.839 22.5992 123.583 21.4883 123.07 20.585C122.582 19.6816 121.91 18.9858 121.056 18.4975C120.225 18.0092 119.298 17.7651 118.272 17.7651C117.222 17.7651 116.282 18.0214 115.452 18.5341C114.622 19.0469 113.963 19.7549 113.475 20.6582C113.011 21.5616 112.779 22.6359 112.779 23.8811C112.779 25.1018 113.023 26.1761 113.511 27.1039C114 28.0317 114.659 28.7519 115.489 29.2646C116.319 29.7774 117.259 30.0337 118.309 30.0337Z" fill="#F3F3F0"/>
<path d="M95.0272 33.4397C93.8553 33.4397 92.781 33.2321 91.8044 32.8171C90.8278 32.3776 90.0465 31.7428 89.4605 30.9127C88.8745 30.0826 88.5816 29.0815 88.5816 27.9096C88.5816 26.5179 88.9234 25.407 89.607 24.5769C90.315 23.7224 91.255 23.0998 92.427 22.7091C93.6233 22.2941 94.9295 22.0865 96.3456 22.0865H100.96C100.96 21.0367 100.789 20.1944 100.447 19.5596C100.106 18.9004 99.6417 18.4243 99.0557 18.1313C98.4698 17.8139 97.7861 17.6552 97.0048 17.6552C95.9794 17.6552 95.076 17.8993 94.2947 18.3876C93.5379 18.8515 93.0618 19.5962 92.8664 20.6216H88.9478C89.0698 19.3032 89.5093 18.1801 90.2662 17.2523C91.0475 16.3245 92.0363 15.6165 93.2327 15.1282C94.429 14.6399 95.6986 14.3957 97.0415 14.3957C98.7994 14.3957 100.252 14.7253 101.4 15.3846C102.572 16.0194 103.438 16.9105 104 18.058C104.586 19.2056 104.879 20.5117 104.879 21.9767V27.5434C104.903 28.2514 105.05 28.7763 105.318 29.1181C105.611 29.4355 106.124 29.6187 106.856 29.6675V33.0002C105.88 33.0002 105.025 32.8903 104.293 32.6706C103.585 32.4508 102.999 32.1212 102.535 31.6818C102.071 31.2179 101.705 30.6319 101.436 29.9239C100.85 30.9005 99.9957 31.7306 98.8726 32.4142C97.7495 33.0978 96.4677 33.4397 95.0272 33.4397ZM95.9428 30.2535C96.9438 30.2535 97.8228 30.0093 98.5796 29.521C99.3365 29.0083 99.9225 28.3491 100.338 27.5434C100.753 26.7132 100.96 25.8221 100.96 24.8699V24.7966H96.6386C95.9306 24.7966 95.2591 24.8821 94.6243 25.053C94.014 25.2239 93.5135 25.5169 93.1228 25.9319C92.7566 26.3226 92.5735 26.8719 92.5735 27.58C92.5735 28.5078 92.9031 29.1914 93.5623 29.6309C94.2215 30.0459 95.015 30.2535 95.9428 30.2535Z" fill="#F3F3F0"/>
<path d="M82.8632 33.0002C81.0565 33.0002 79.6648 32.5607 78.6882 31.6818C77.7116 30.8028 77.2232 29.3623 77.2232 27.3602V18.0947H74.4765V14.8352H77.2232V10.4404H81.1053V14.8352H85.7198V18.0947H81.1053V27.3602C81.1053 28.288 81.3128 28.9106 81.7279 29.228C82.1429 29.5454 82.7899 29.7041 83.6689 29.7041H85.7198V33.0002H82.8632Z" fill="#F3F3F0"/>
<path d="M69.3347 11.649C68.6266 11.649 68.0163 11.4048 67.5035 10.9165C67.0152 10.4038 66.7711 9.78118 66.7711 9.04871C66.7711 8.34067 67.0152 7.74249 67.5035 7.25419C68.0163 6.76588 68.6266 6.52172 69.3347 6.52172C70.0671 6.52172 70.6776 6.76588 71.1659 7.25419C71.6786 7.74249 71.9349 8.34067 71.9349 9.04871C71.9349 9.78118 71.6786 10.4038 71.1659 10.9165C70.6776 11.4048 70.0671 11.649 69.3347 11.649ZM67.3937 33.0002V14.8352H71.2757V33.0002H67.3937Z" fill="#F3F3F0"/>
<path d="M46.633 33.0002V29.9971L58.8285 10.6601H46.7795V7.36405H63.3331V10.3671L51.101 29.6675H63.443V33.0002H46.633Z" fill="#F3F3F0"/>
</svg>
